<?xml version="1.0" encoding="UTF-8" standalone="no"?>
<svg
   xmlns:dc="http://purl.org/dc/elements/1.1/"
   xmlns:cc="http://creativecommons.org/ns#"
   xmlns:rdf="http://www.w3.org/1999/02/22-rdf-syntax-ns#"
   xmlns:svg="http://www.w3.org/2000/svg"
   xmlns="http://www.w3.org/2000/svg"
   id="svg8"
   version="1.1"
   viewBox="0 0 400 160"
   height="160"
   width="400">
  <metadata
     id="metadata14">
    <rdf:RDF>
      <cc:Work
         rdf:about="">
        <dc:format>image/svg+xml</dc:format>
        <dc:type
           rdf:resource="http://purl.org/dc/dcmitype/StillImage" />
        <dc:title></dc:title>
      </cc:Work>
    </rdf:RDF>
  </metadata>
  <defs
     id="defs12" />
  <path
     style="fill:#009ada;stroke-width:1.59288299"
     id="path2"
     d="M 26.073902,40.500644 H 0.063716 v 98.922816 a 451.42623,451.42623 0 0 1 26.010186,-8.48688 z M 0,0 H 26.480087 V 23.171669 H 0 Z m 66.915422,93.873375 c 0,-23.181227 12.653863,-33.243469 27.415107,-33.243469 14.759661,0 19.680071,8.897845 19.680071,24.582964 v 33.61939 c 9.25943,0.43326 17.9502,1.46227 26.25071,2.92931 V 80.0583 c 0,-26.223633 -13.58888,-41.900787 -37.49328,-41.900787 -18.74823,0 -29.763016,9.130406 -35.852608,22.236646 V 40.502237 H 40.903643 v 86.440983 c 9.127219,-2.2603 17.778167,-4.00769 26.010186,-5.30589 V 93.873375 Z M 257.07857,40.500644 H 231.29458 L 200.36557,129.31184 170.84148,40.500644 H 143.42 l 31.3559,90.004256 c 15.23593,4.86786 29.76143,10.52418 44.88267,15.56566 z M 264.11752,0 h 26.47531 v 23.171669 h -26.47531 z m 26.23797,40.500644 H 264.34531 V 157.3864 c 8.21449,1.27431 16.84155,2.11376 26.01018,2.38136 z m 64.42416,-2.341538 c -31.40847,0 -49.2169,14.278603 -51.09173,38.155919 h 24.37589 c 0.46672,-11.932286 9.37253,-18.727525 25.30454,-18.727525 15.93042,0 20.61669,7.019835 20.61669,17.79091 v 11.003636 c -3.27816,-0.237341 -7.72708,-0.469901 -11.47832,-0.469901 -43.8234,0 -62.09695,14.979475 -62.09695,41.437255 0,15.98459 8.98545,27.18096 24.19749,30.80477 11.66149,-1.39059 24.18155,-3.67637 37.74017,-7.06125 A 387.8033,387.8033 0 0 0 385.25946,144.61944 466.88516,466.88516 0 0 0 400,139.7277 V 75.37841 C 399.998,54.078378 389.45034,38.159106 354.77965,38.159106 Z m 19.20379,73.032094 c 0,17.79569 -13.35473,28.32783 -29.52568,28.32783 -11.01319,0 -17.33534,-5.85066 -17.33534,-16.15183 0,-14.51276 12.41811,-20.37138 36.08995,-20.37138 3.74964,0 7.49292,0 10.77426,0.23734 v 7.95804 z" />
</svg>
